<svg width="512" height="512" viewBox="0 0 512 512" fill="none" xmlns="http://www.w3.org/2000/svg">
  <rect width="512" height="512" rx="96" fill="url(#gradient)"/>
  <text x="256" y="340" font-family="Arial, sans-serif" font-size="180" font-weight="bold" text-anchor="middle" fill="white">ะะก</text>
  
  <!-- Decorative elements -->
  <circle cx="256" cy="140" r="20" fill="white" opacity="0.3"/>
  <circle cx="180" cy="120" r="12" fill="white" opacity="0.2"/>
  <circle cx="332" cy="130" r="16" fill="white" opacity="0.25"/>
  <circle cx="200" cy="160" r="8" fill="white" opacity="0.15"/>
  <circle cx="312" cy="155" r="10" fill="white" opacity="0.2"/>
  
  <!-- Code-like pattern -->
  <rect x="80" y="400" width="60" height="8" rx="4" fill="white" opacity="0.2"/>
  <rect x="150" y="400" width="40" height="8" rx="4" fill="white" opacity="0.15"/>
  <rect x="200" y="400" width="80" height="8" rx="4" fill="white" opacity="0.25"/>
  <rect x="290" y="400" width="50" height="8" rx="4" fill="white" opacity="0.2"/>
  <rect x="350" y="400" width="70" height="8" rx="4" fill="white" opacity="0.18"/>
  
  <rect x="80" y="420" width="40" height="8" rx="4" fill="white" opacity="0.15"/>
  <rect x="130" y="420" width="90" height="8" rx="4" fill="white" opacity="0.22"/>
  <rect x="230" y="420" width="60" height="8" rx="4" fill="white" opacity="0.18"/>
  <rect x="300" y="420" width="45" height="8" rx="4" fill="white" opacity="0.2"/>
  <rect x="355" y="420" width="75" height="8" rx="4" fill="white" opacity="0.16"/>
  
  <defs>
    <linearGradient id="gradient" x1="0%" y1="0%" x2="100%" y2="100%">
      <stop offset="0%" style="stop-color:#4f46e5;stop-opacity:1" />
      <stop offset="30%" style="stop-color:#7c3aed;stop-opacity:1" />
      <stop offset="70%" style="stop-color:#0891b2;stop-opacity:1" />
      <stop offset="100%" style="stop-color:#059669;stop-opacity:1" />
    </linearGradient>
  </defs>
</svg>